<svg id="hero" class="land-svg" width="800" height="300" viewBox="0 0 800 300" fill="none" xmlns="http://www.w3.org/2000/svg"><g id="flagLeft" class="svelte-yu90zj"><path d="M69 83H65V227H69V83Z" fill="#E0EBE8"></path><path d="M28.5 108.83L69.5 93.5V125.5L28.5 108.83Z" fill="#E0EBE8"></path><path d="M28.5 88.83L69.5 73.5V105.5L28.5 88.83Z" fill="#58D6B9"></path></g><g id="flagRight" class="svelte-yu90zj"><path d="M729 83H725V227H729V83Z" fill="#E0EBE8"></path><path d="M729 125V92L687 108.5L729 125Z" fill="#E0EBE8"></path><path d="M729 105V72L687 88.5L729 105Z" fill="#F4A0A0"></path></g><g id="hillMiddle" class="svelte-yu90zj"><path d="M414.47 50.8011L403.926 43.659C401.555 42.0532 398.445 42.0532 396.074 43.659L385.53 50.8011C383.504 52.1732 380.909 52.3881 378.685 51.3677L367.105 46.0542C364.502 44.86 361.435 45.3715 359.36 47.3457L350.141 56.1195C348.368 57.8066 345.843 58.4454 343.481 57.8042L331.183 54.4656C328.419 53.7151 325.476 54.7246 323.755 57.0139L316.111 67.1778C314.64 69.1344 312.253 70.1801 309.818 69.9356L297.14 68.6629C294.288 68.3767 291.551 69.8572 290.229 72.3999L284.37 83.6743C283.24 85.8476 281.057 87.2725 278.613 87.4316L265.903 88.2584C263.042 88.4446 260.584 90.3565 259.699 93.0836L255.781 105.16C255.025 107.491 253.105 109.257 250.719 109.815L238.325 112.717C235.532 113.371 233.42 115.663 232.997 118.5L231.126 131.048C230.764 133.473 229.159 135.532 226.896 136.476L215.157 141.372C212.508 142.476 210.801 145.086 210.852 147.956L211.075 160.634C211.118 163.087 209.874 165.384 207.796 166.687L197.03 173.44C194.598 174.966 193.344 177.823 193.867 180.646L195.837 191.276C196.452 194.593 199.346 197 202.72 197H597.28C600.654 197 603.548 194.593 604.163 191.276L606.133 180.646C606.656 177.823 605.402 174.966 602.97 173.441L592.204 166.687C590.126 165.384 588.882 163.087 588.925 160.634L589.148 147.956C589.199 145.086 587.492 142.476 584.843 141.372L573.104 136.476C570.841 135.532 569.236 133.473 568.874 131.048L567.003 118.5C566.58 115.663 564.468 113.371 561.675 112.717L549.281 109.815C546.895 109.257 544.975 107.491 544.219 105.16L540.301 93.0836C539.416 90.3565 536.958 88.4446 534.097 88.2584L521.387 87.4316C518.943 87.2725 516.76 85.8476 515.63 83.6743L509.771 72.3999C508.449 69.8572 505.712 68.3767 502.86 68.6629L490.182 69.9356C487.747 70.1801 485.36 69.1344 483.889 67.1778L476.245 57.0139C474.524 54.7246 471.581 53.7151 468.817 54.4656L456.519 57.8042C454.157 58.4454 451.632 57.8066 449.859 56.1195L440.64 47.3457C438.565 45.3715 435.498 44.86 432.895 46.0542L421.315 51.3677C419.091 52.3881 416.496 52.1732 414.47 50.8011Z" fill="#3E9C87"></path></g><g id="hillRight" class="svelte-yu90zj"><path d="M587.47 153.801L576.926 146.659C574.555 145.053 571.445 145.053 569.074 146.659L558.53 153.801C556.504 155.173 553.909 155.388 551.685 154.368L540.105 149.054C537.502 147.86 534.435 148.372 532.36 150.346L523.141 159.12C521.368 160.807 518.843 161.445 516.481 160.804L504.183 157.466C501.419 156.715 498.476 157.725 496.755 160.014L489.111 170.178C487.64 172.134 485.253 173.18 482.818 172.936L470.14 171.663C467.288 171.377 464.551 172.857 463.229 175.4L457.37 186.674C456.24 188.848 454.057 190.273 451.613 190.432L438.903 191.258C436.042 191.445 433.584 193.356 432.699 196.084L428.781 208.16C428.025 210.491 426.105 212.257 423.719 212.815L411.325 215.717C408.532 216.371 406.42 218.663 405.997 221.5L404.126 234.048C403.764 236.473 402.159 238.532 399.896 239.476L388.157 244.372C385.508 245.476 383.801 248.086 383.852 250.956L384.075 263.634C384.118 266.087 382.874 268.384 380.796 269.687L370.03 276.44C367.598 277.966 366.344 280.823 366.867 283.646L368.837 294.276C369.452 297.593 372.346 300 375.72 300H770.28C773.654 300 776.548 297.593 777.163 294.276L779.133 283.646C779.656 280.823 778.402 277.966 775.97 276.441L765.204 269.687C763.126 268.384 761.882 266.087 761.925 263.634L762.148 250.956C762.199 248.086 760.492 245.476 757.843 244.372L746.104 239.476C743.841 238.532 742.236 236.473 741.874 234.048L740.003 221.5C739.58 218.663 737.468 216.371 734.675 215.717L722.281 212.815C719.895 212.257 717.975 210.491 717.219 208.16L713.301 196.084C712.416 193.356 709.958 191.445 707.097 191.258L694.387 190.432C691.943 190.273 689.76 188.848 688.63 186.674L682.771 175.4C681.449 172.857 678.712 171.377 675.86 171.663L663.182 172.936C660.747 173.18 658.36 172.134 656.889 170.178L649.245 160.014C647.524 157.725 644.581 156.715 641.817 157.466L629.519 160.804C627.157 161.445 624.632 160.807 622.859 159.12L613.64 150.346C611.565 148.372 608.498 147.86 605.895 149.054L594.315 154.368C592.091 155.388 589.496 155.173 587.47 153.801Z" fill="#E0EBE8"></path></g><g id="hillLeft" class="svelte-yu90zj"><path d="M275.444 128.839L261.931 119.668C259.558 118.057 256.442 118.057 254.069 119.668L240.556 128.839C238.528 130.215 235.928 130.431 233.701 129.407L218.864 122.585C216.258 121.387 213.184 121.9 211.109 123.879L199.29 135.149C197.516 136.841 194.987 137.481 192.622 136.838L176.864 132.551C174.096 131.798 171.149 132.81 169.428 135.104L159.625 148.166C158.154 150.126 155.764 151.174 153.326 150.929L137.077 149.294C134.223 149.007 131.483 150.49 130.162 153.036L122.644 167.533C121.515 169.709 119.331 171.136 116.885 171.296L100.589 172.358C97.7266 172.544 95.2679 174.458 94.3844 177.187L89.3541 192.724C88.5992 195.055 86.6796 196.823 84.2933 197.382L68.3942 201.113C65.6019 201.768 63.4917 204.06 63.0694 206.897L60.665 223.05C60.3041 225.474 58.7015 227.533 56.44 228.478L41.3717 234.774C38.7253 235.88 37.0211 238.488 37.0716 241.356L37.3586 257.684C37.4017 260.135 36.1598 262.429 34.0847 263.734L20.2582 272.424C17.8299 273.951 16.5783 276.804 17.1001 279.624L19.7296 293.839C20.3436 297.157 23.238 299.565 26.6129 299.565H489.387C492.762 299.565 495.656 297.157 496.27 293.839L498.9 279.624C499.422 276.804 498.17 273.951 495.742 272.424L481.915 263.734C479.84 262.429 478.598 260.135 478.641 257.684L478.928 241.356C478.979 238.488 477.275 235.88 474.628 234.774L459.56 228.478C457.298 227.533 455.696 225.474 455.335 223.05L452.931 206.897C452.508 204.06 450.398 201.768 447.606 201.113L431.707 197.382C429.32 196.823 427.401 195.055 426.646 192.724L421.616 177.187C420.732 174.458 418.273 172.544 415.411 172.358L399.115 171.296C396.669 171.136 394.485 169.709 393.356 167.533L385.838 153.036C384.517 150.49 381.777 149.007 378.923 149.294L362.674 150.929C360.236 151.174 357.846 150.126 356.375 148.166L346.572 135.104C344.851 132.81 341.904 131.798 339.136 132.551L323.378 136.838C321.013 137.481 318.484 136.841 316.71 135.149L304.891 123.879C302.816 121.9 299.742 121.387 297.136 122.585L282.299 129.407C280.072 130.431 277.472 130.215 275.444 128.839Z" fill="#58D6B9"></path></g><g id="treeHillLeftFirst" class="svelte-yu90zj"><path d="M104 221C110.627 221 116 218.538 116 215.5C116 212.462 110.627 210 104 210C97.3726 210 92 212.462 92 215.5C92 218.538 97.3726 221 104 221Z" fill="black" fill-opacity="0.1"></path><path d="M115.619 178C118.334 175.133 120 171.261 120 167C120 158.163 112.837 151 104 151C95.1634 151 88 158.163 88 167C88 171.261 89.6655 175.133 92.381 178C89.6655 180.867 88 184.739 88 189C88 197.837 95.1634 205 104 205C112.837 205 120 197.837 120 189C120 184.739 118.334 180.867 115.619 178Z" fill="#F6D546"></path><path d="M103 178H105V185.811L109.23 181.5L110.5 182.8L105 188.404V193.811L109.23 189.5L110.5 190.8L105 196.404V215H103V192.404L97.5 186.8L98.77 185.5L103 189.811V178Z" fill="#CA8A65"></path></g><g id="treeHillLeftSecond" class="svelte-yu90zj"><path d="M143.5 205C150.956 205 157 202.538 157 199.5C157 196.462 150.956 194 143.5 194C136.044 194 130 196.462 130 199.5C130 202.538 136.044 205 143.5 205Z" fill="black" fill-opacity="0.1"></path><path d="M156.071 156C159.126 152.814 161 148.512 161 143.778C161 133.959 152.941 126 143 126C133.059 126 125 133.959 125 143.778C125 148.512 126.874 152.814 129.929 156C126.874 159.186 125 163.488 125 168.222C125 178.041 133.059 186 143 186C152.941 186 161 178.041 161 168.222C161 163.488 159.126 159.186 156.071 156Z" fill="#217D68"></path><path d="M142 162H144V169.811L148.23 165.5L149.5 166.8L144 172.404V177.811L148.23 173.5L149.5 174.8L144 180.404V199H142V176.404L136.5 170.8L137.77 169.5L142 173.811V162Z" fill="#CA8A65"></path></g><g id="treeHillLeftThird" class="svelte-yu90zj"><path d="M178 191C183.523 191 188 189.209 188 187C188 184.791 183.523 183 178 183C172.477 183 168 184.791 168 187C168 189.209 172.477 191 178 191Z" fill="black" fill-opacity="0.1"></path><path d="M190.531 141.171L178.5 129L166.469 141.171L174.175 148.968L161 162.296L178.5 180L196 162.296L182.825 148.968L190.531 141.171Z" fill="#F4A0A0"></path><path d="M177 157H179V161.053L183.23 157.14L184.5 158.32L179 163.414V168.313L183.23 164.4L184.5 165.58L179 170.674V187H177V167.044L171.5 161.95L172.77 160.77L177 164.683V157Z" fill="#CA8A65"></path></g><g id="houseHillLeft" class="svelte-yu90zj"><path d="M234 108H204V151H234V108Z" fill="#6DA0AB"></path><path d="M216 113H208V121H216V113ZM216 126H208V134H216V126ZM223 126H231V134H223V126ZM231 113H223V121H231V113ZM208 139H216V147H208V139Z" fill="#C6F7FB" fill-rule="evenodd" clip-rule="evenodd"></path><path d="M231 139H223V151H231V139Z" fill="#70595E"></path><path d="M224 98L219 94L199 110H239L232 104.4V95H224V98Z" fill="#70595E" fill-rule="evenodd" clip-rule="evenodd"></path></g><g id="treeMiddleFirst" class="svelte-yu90zj"><path d="M349.5 96C356.956 96 363 93.5376 363 90.5C363 87.4624 356.956 85 349.5 85C342.044 85 336 87.4624 336 90.5C336 93.5376 342.044 96 349.5 96Z" fill="black" fill-opacity="0.1"></path><path d="M362.071 47C365.126 43.8141 367 39.512 367 34.7778C367 24.9594 358.941 17 349 17C339.059 17 331 24.9594 331 34.7778C331 39.512 332.874 43.8141 335.929 47C332.874 50.1859 331 54.488 331 59.2222C331 69.0406 339.059 77 349 77C358.941 77 367 69.0406 367 59.2222C367 54.488 365.126 50.1859 362.071 47Z" fill="#8FD182" fill-rule="evenodd" clip-rule="evenodd"></path><path d="M348 53H350V60.8112L354.23 56.5L355.5 57.8L350 63.4038V68.8112L354.23 64.5L355.5 65.8L350 71.4038V90H348V67.4038L342.5 61.8L343.77 60.5L348 64.8112V53Z" fill="#CA8A65"></path></g><g id="houseMiddle" class="svelte-yu90zj"><path d="M401 38H447V60H401V38Z" fill="#CA8A65"></path><path d="M410 41H404V47H410V41ZM422 41H416V47H422V41ZM404 51H410V57H404V51Z" fill="#C6F7FB" fill-rule="evenodd" clip-rule="evenodd"></path><path d="M432 41H426V47H432V41ZM444 41H438V47H444V41Z" fill="#C6F7FB" fill-rule="evenodd" clip-rule="evenodd"></path><path d="M444 51H438V57H444V51Z" fill="#C6F7FB" fill-rule="evenodd" clip-rule="evenodd"></path><path d="M422 51H416V60H422V51Z" fill="#70595E"></path><path d="M432 51H426V60H432V51Z" fill="#70595E"></path><path d="M413 25H416V23H422V25H424H426V23H432V25H435L451 38H397L413 25Z" fill="#70595E"></path></g><g id="treeHillMiddleSecond" class="svelte-yu90zj"><path d="M491.627 109.556C498.255 109.556 503.627 107.094 503.627 104.056C503.627 101.019 498.255 98.5562 491.627 98.5562C485 98.5562 479.627 101.019 479.627 104.056C479.627 107.094 485 109.556 491.627 109.556Z" fill="black" fill-opacity="0.1"></path><path d="M503.246 66.5562C505.962 63.6888 507.627 59.817 507.627 55.5562C507.627 46.7196 500.464 39.5562 491.627 39.5562C482.791 39.5562 475.627 46.7196 475.627 55.5562C475.627 59.817 477.293 63.6888 480.008 66.5562C477.293 69.4235 475.627 73.2953 475.627 77.5562C475.627 86.3927 482.791 93.5562 491.627 93.5562C500.464 93.5562 507.627 86.3927 507.627 77.5562C507.627 73.2953 505.962 69.4235 503.246 66.5562Z" fill="#217D68" fill-rule="evenodd" clip-rule="evenodd"></path><path d="M490.627 66.5562H492.627V74.3674L496.857 70.0562L498.127 71.3562L492.627 76.9599V82.3674L496.857 78.0562L498.127 79.3562L492.627 84.9599V103.556H490.627V80.9599L485.127 75.3562L486.397 74.0562L490.627 78.3674V66.5562Z" fill="#CA8A65"></path></g><g id="treeHillThirdFirst" class="svelte-yu90zj"><path d="M603 199C608.523 199 613 197.209 613 195C613 192.791 608.523 191 603 191C597.477 191 593 192.791 593 195C593 197.209 597.477 199 603 199Z" fill="black" fill-opacity="0.1"></path><path d="M615.531 149.171L603.5 137L591.469 149.171L599.175 156.968L586 170.296L603.5 188L621 170.296L607.825 156.968L615.531 149.171Z" fill="#F4A0A0" fill-rule="evenodd" clip-rule="evenodd"></path><path d="M602 165H604V169.053L608.23 165.14L609.5 166.32L604 171.414V176.313L608.23 172.4L609.5 173.58L604 178.674V195H602V175.044L596.5 169.95L597.77 168.77L602 172.683V165Z" fill="#CA8A65"></path></g><g id="treeHillThirdSecond" class="svelte-yu90zj"><path d="M645.5 254C652.956 254 659 251.538 659 248.5C659 245.462 652.956 243 645.5 243C638.044 243 632 245.462 632 248.5C632 251.538 638.044 254 645.5 254Z" fill="black" fill-opacity="0.1"></path><path d="M658.071 205C661.126 201.814 663 197.512 663 192.778C663 182.959 654.941 175 645 175C635.059 175 627 182.959 627 192.778C627 197.512 628.874 201.814 631.929 205C628.874 208.186 627 212.488 627 217.222C627 227.041 635.059 235 645 235C654.941 235 663 227.041 663 217.222C663 212.488 661.126 208.186 658.071 205Z" fill="#217D68" fill-rule="evenodd" clip-rule="evenodd"></path><path d="M644 211H646V218.811L650.23 214.5L651.5 215.8L646 221.404V226.811L650.23 222.5L651.5 223.8L646 229.404V248H644V225.404L638.5 219.8L639.77 218.5L644 222.811V211Z" fill="#CA8A65"></path></g><g id="treeHillRightThird" class="svelte-yu90zj"><path d="M679 215C684.523 215 689 213.209 689 211C689 208.791 684.523 207 679 207C673.477 207 669 208.791 669 211C669 213.209 673.477 215 679 215Z" fill="black" fill-opacity="0.1"></path><path d="M690.619 173C693.334 170.133 695 166.261 695 162C695 153.163 687.837 146 679 146C670.163 146 663 153.163 663 162C663 166.261 664.666 170.133 667.381 173C664.666 175.867 663 179.739 663 184C663 192.837 670.163 200 679 200C687.837 200 695 192.837 695 184C695 179.739 693.334 175.867 690.619 173Z" fill="#F6D546" fill-rule="evenodd" clip-rule="evenodd"></path><path d="M678 181H680V185.053L684.23 181.14L685.5 182.32L680 187.414V192.313L684.23 188.4L685.5 189.58L680 194.674V211H678V191.044L672.5 185.95L673.77 184.77L678 188.683V181Z" fill="#CA8A65"></path></g><defs><linearGradient id="paint0_linear_42_3119" x1="228.001" y1="86.0021" x2="228.001" y2="111.998" gradientUnits="userSpaceOnUse"><stop stop-color="#f0f0f0" stop-opacity="0"></stop><stop offset="1" stop-color="#f0f0f0"></stop></linearGradient><linearGradient id="paint1_linear_42_3119" x1="429.499" y1="9.99771" x2="429.499" y2="30.0028" gradientUnits="userSpaceOnUse"><stop stop-color="#f0f0f0" stop-opacity="0"></stop><stop offset="1" stop-color="#f0f0f0"></stop></linearGradient></defs></svg>