<svg xmlns="http://www.w3.org/2000/svg" xmlns:xlink="http://www.w3.org/1999/xlink" width="500" zoomAndPan="magnify" viewBox="0 0 375 374.999991" height="500" preserveAspectRatio="xMidYMid meet" version="1.0"><defs><clipPath id="4b07d114b5"><path d="M 139 86.429688 L 236 86.429688 L 236 288.929688 L 139 288.929688 Z M 139 86.429688 " clip-rule="nonzero"/></clipPath></defs><path fill="#f25042" d="M 268.761719 165.414062 C 239.09375 135.714844 202.992188 123.675781 188.125 138.53125 C 187.910156 138.773438 187.722656 139.0625 187.507812 139.316406 C 187.265625 139.058594 187.085938 138.773438 186.824219 138.53125 C 172.015625 123.675781 135.90625 135.714844 106.222656 165.394531 C 76.539062 195.078125 64.503906 231.179688 79.355469 246.027344 C 94.203125 260.839844 130.277344 248.8125 159.980469 219.140625 C 172.589844 206.53125 181.972656 192.789062 187.507812 179.960938 C 193.015625 192.789062 202.433594 206.527344 215.011719 219.140625 C 244.710938 248.8125 280.789062 260.839844 295.625 246.027344 C 310.476562 231.179688 298.4375 195.078125 268.761719 165.414062 Z M 268.761719 165.414062 " fill-opacity="1" fill-rule="nonzero"/><g clip-path="url(#4b07d114b5)"><path fill="#eaddcf" d="M 217.644531 232.742188 C 222.824219 237.886719 228.171875 242.386719 233.554688 246.503906 C 223.207031 271.871094 206.445312 288.449219 187.476562 288.449219 C 168.664062 288.449219 152.003906 272.140625 141.691406 247.105469 C 147.320312 242.792969 152.960938 238.164062 158.394531 232.742188 C 171.933594 219.160156 182.070312 204.351562 188.035156 190.585938 C 193.988281 204.351562 204.066406 219.160156 217.644531 232.742188 Z M 186.925781 132.441406 C 187.167969 132.699219 187.347656 133.019531 187.632812 133.28125 C 187.84375 133.019531 188.054688 132.699219 188.3125 132.441406 C 197.863281 122.886719 215.636719 123.855469 235.191406 132.84375 C 225.078125 105.066406 207.53125 86.554688 187.476562 86.554688 C 167.4375 86.554688 149.910156 105.132812 139.769531 132.949219 C 159.453125 123.855469 177.328125 122.816406 186.925781 132.441406 Z M 186.925781 132.441406 " fill-opacity="1" fill-rule="nonzero"/></g></svg>